<svg width="48" height="48" viewBox="0 0 48 48" fill="none" xmlns="http://www.w3.org/2000/svg">
<g clip-path="url(#clip0_11_147)">
<path d="M16.3792 31.6201L27.1762 27.1748L31.6215 16.3778L20.8245 20.8231L16.3792 31.6201ZM24 21.7493C25.242 21.7493 26.25 22.7573 26.25 23.9993C26.25 25.2413 25.242 26.2493 24 26.2493C22.758 26.2493 21.75 25.2413 21.75 23.9993C21.75 22.7573 22.758 21.7493 24 21.7493Z" fill="#231F20"/>
<path d="M24 24.7493C24.4142 24.7493 24.75 24.4135 24.75 23.9993C24.75 23.5851 24.4142 23.2493 24 23.2493C23.5858 23.2493 23.25 23.5851 23.25 23.9993C23.25 24.4135 23.5858 24.7493 24 24.7493Z" fill="#231F20"/>
<path d="M24 0C10.7452 0 0 10.7452 0 24C0 37.2547 10.7452 48 24 48C37.2547 48 48 37.2547 48 24C48 10.7452 37.2547 0 24 0ZM24 44.9993C12.402 44.9993 3 35.5973 3 23.9993C3 12.4013 12.402 2.99925 24 2.99925C35.598 2.99925 45 12.4013 45 23.9993C45 35.5973 35.598 44.9993 24 44.9993Z" fill="#231F20"/>
<path d="M39 23.9992C39 23.5844 39.3352 23.2492 39.75 23.2492H43.4812C43.299 18.4304 41.37 14.0602 38.307 10.7534L37.2592 11.8012C36.966 12.0952 36.492 12.0944 36.1987 11.8012C35.9055 11.5079 35.9055 11.0339 36.1987 10.7407L37.2465 9.69294C33.939 6.62994 29.5687 4.70094 24.75 4.51794V8.24919C24.75 8.66394 24.4147 8.99919 24 8.99919C23.5852 8.99919 23.25 8.66394 23.25 8.24919V4.51794C18.4312 4.70019 14.061 6.62919 10.7542 9.69219L11.802 10.7399C12.096 11.0332 12.0952 11.5072 11.802 11.8004C11.5087 12.0937 11.0347 12.0937 10.7415 11.8004L9.69374 10.7527C6.63074 14.0594 4.70174 18.4297 4.51949 23.2484H8.24999C8.66474 23.2484 8.99999 23.5837 8.99999 23.9984C8.99999 24.4132 8.66474 24.7484 8.24999 24.7484H4.51874C4.70099 29.5672 6.62999 33.9374 9.69299 37.2442L10.7407 36.1964C11.034 35.9024 11.508 35.9032 11.8012 36.1964C12.0945 36.4897 12.0945 36.9637 11.8012 37.2569L10.7535 38.3047C14.061 41.3684 18.4312 43.2974 23.25 43.4804V39.7492C23.25 39.3344 23.5852 38.9992 24 38.9992C24.4147 38.9992 24.75 39.3344 24.75 39.7492V43.4804C29.5687 43.2982 33.939 41.3692 37.2457 38.3062L36.198 37.2584C35.904 36.9652 35.9047 36.4912 36.198 36.1979C36.4912 35.9047 36.9652 35.9047 37.2585 36.1979L38.3062 37.2457C41.3692 33.9389 43.2982 29.5687 43.4805 24.7499H39.75C39.3352 24.7492 39 24.4139 39 23.9992ZM33.6937 15.2849L28.4437 28.0349C28.3672 28.2194 28.2202 28.3664 28.0357 28.4429L15.2857 33.6929C15.1935 33.7312 15.096 33.7492 15 33.7492C14.805 33.7492 14.613 33.6727 14.4697 33.5294C14.256 33.3157 14.1915 32.9932 14.3062 32.7134L19.5562 19.9634C19.6327 19.7789 19.7797 19.6319 19.9642 19.5554L32.7142 14.3054C32.994 14.1914 33.3165 14.2552 33.5302 14.4689C33.744 14.6827 33.8085 15.0052 33.6937 15.2849Z" fill="#231F20"/>
</g>
<defs>
<clipPath id="clip0_11_147">
<rect width="48" height="48" fill="white"/>
</clipPath>
</defs>
</svg>
