<svg width="48" height="48" viewBox="0 0 48 48" fill="none" xmlns="http://www.w3.org/2000/svg">
<path d="M11.852 41.148C13.6108 42.6214 15.6937 43.657 17.93 44.17C18.144 44.24 18.288 43.96 18.144 43.82C13.354 39.25 15.986 34.304 17.93 32.074C19.316 30.482 21.29 27.86 21.146 24.344C21.146 23.992 21.506 23.71 21.79 23.922C24.508 25.328 26.366 28.422 26.866 30.952C27.654 30.18 27.94 28.984 27.94 27.93C27.94 27.578 28.368 27.296 28.726 27.578C31.3 29.898 35.732 37.772 28.582 43.958C28.44 44.1 28.582 44.382 28.726 44.312C30.894 43.7436 32.9329 42.7646 34.732 41.428C46.386 32.428 38.806 16.468 33.872 11.196C33.23 10.562 32.086 10.984 32.086 11.898C32.014 13.798 31.442 15.906 29.942 17.312C28.798 12.532 24.986 7.10197 19.552 4.42997C18.838 4.07797 17.98 4.63997 18.052 5.41397C18.192 11.954 13.926 16.118 10.208 21.532C6.91802 26.382 4.77402 35.312 11.852 41.148Z" fill="black"/>
</svg>
